<svg width="204" height="204" viewBox="0 0 204 204" fill="none" xmlns="http://www.w3.org/2000/svg">
<path d="M202.24 97.76L106.24 1.75997C105.115 0.636366 103.59 0.00524902 102 0.00524902C100.41 0.00524902 98.885 0.636366 97.76 1.75997L1.76 97.76C0.921946 98.5991 0.35135 99.6677 0.120275 100.831C-0.1108 101.994 0.00801057 103.2 0.461702 104.295C0.915392 105.391 1.68361 106.328 2.66934 106.987C3.65506 107.646 4.81408 107.999 6 108H48V190C48 193.713 49.475 197.274 52.1005 199.899C54.726 202.525 58.287 204 62 204H142C145.713 204 149.274 202.525 151.899 199.899C154.525 197.274 156 193.713 156 190V108H198C199.186 107.999 200.345 107.646 201.331 106.987C202.316 106.328 203.085 105.391 203.538 104.295C203.992 103.2 204.111 101.994 203.88 100.831C203.649 99.6677 203.078 98.5991 202.24 97.76ZM150 96C148.409 96 146.883 96.6321 145.757 97.7573C144.632 98.8826 144 100.409 144 102V190C144 190.53 143.789 191.039 143.414 191.414C143.039 191.789 142.53 192 142 192H62C61.4696 192 60.9609 191.789 60.5858 191.414C60.2107 191.039 60 190.53 60 190V102C60 100.409 59.3679 98.8826 58.2426 97.7573C57.1174 96.6321 55.5913 96 54 96H20.49L102 14.49L183.51 96H150Z" fill="#808080"/>
</svg>
