<svg width="204" height="204" viewBox="0 0 204 204" fill="none" xmlns="http://www.w3.org/2000/svg">
<path d="M203.54 99.7C203.085 98.6049 202.317 97.669 201.331 97.0105C200.345 96.3519 199.186 96.0003 198 96H156V14C156 10.287 154.525 6.72602 151.899 4.10051C149.274 1.475 145.713 0 142 0H62C58.287 0 54.726 1.475 52.1005 4.10051C49.475 6.72602 48 10.287 48 14V96H6C4.81408 96.001 3.65507 96.3535 2.66935 97.0129C1.68362 97.6722 0.9154 98.6089 0.461709 99.7046C0.0080182 100.8 -0.110793 102.006 0.120282 103.169C0.351357 104.332 0.921954 105.401 1.76001 106.24L97.76 202.24C98.885 203.364 100.41 203.995 102 203.995C103.59 203.995 105.115 203.364 106.24 202.24L202.24 106.24C203.079 105.401 203.651 104.331 203.882 103.167C204.114 102.003 203.994 100.796 203.54 99.7ZM102 189.51L20.49 108H54C55.5913 108 57.1174 107.368 58.2426 106.243C59.3679 105.117 60 103.591 60 102V14C60 13.4696 60.2107 12.9609 60.5858 12.5858C60.9609 12.2107 61.4696 12 62 12H142C142.53 12 143.039 12.2107 143.414 12.5858C143.789 12.9609 144 13.4696 144 14V102C144 103.591 144.632 105.117 145.757 106.243C146.883 107.368 148.409 108 150 108H183.51L102 189.51Z" fill="#808080"/>
</svg>
