<svg width="196" height="196" viewBox="0 0 196 196" fill="none" xmlns="http://www.w3.org/2000/svg">
<path d="M31.25 0.75H164.5C172.655 0.75 180.477 3.98972 186.244 9.75647C192.01 15.5232 195.25 23.3446 195.25 31.5V123.75C195.25 131.905 192.01 139.727 186.244 145.494C180.477 151.26 172.655 154.5 164.5 154.5H117.452L79.5275 192.527C77.6825 194.372 75.12 195.5 72.25 195.5C69.5315 195.5 66.9244 194.42 65.0022 192.498C63.0799 190.576 62 187.968 62 185.25V154.5H31.25C23.0946 154.5 15.2732 151.26 9.50647 145.494C3.73972 139.727 0.5 131.905 0.5 123.75V31.5C0.5 23.3446 3.73972 15.5232 9.50647 9.75647C15.2732 3.98972 23.0946 0.75 31.25 0.75ZM164.5 11H31.25C25.8131 11 20.5988 13.1598 16.7543 17.0043C12.9098 20.8488 10.75 26.0631 10.75 31.5V123.75C10.75 129.187 12.9098 134.401 16.7543 138.246C20.5988 142.09 25.8131 144.25 31.25 144.25H72.25V185.25L113.25 144.25H164.5C169.937 144.25 175.151 142.09 178.996 138.246C182.84 134.401 185 129.187 185 123.75V31.5C185 26.0631 182.84 20.8488 178.996 17.0043C175.151 13.1598 169.937 11 164.5 11Z" fill="#808080"/>
</svg>
